<?xml version="1.0" standalone="no"?>
<!DOCTYPE svg PUBLIC "-//W3C//DTD SVG 20010904//EN"
 "http://www.w3.org/TR/2001/REC-SVG-20010904/DTD/svg10.dtd">
<svg version="1.0" xmlns="http://www.w3.org/2000/svg"
 width="500.000000pt" height="500.000000pt" viewBox="0 0 500.000000 500.000000"
 preserveAspectRatio="xMidYMid meet">

<g transform="translate(0.000000,500.000000) scale(0.100000,-0.100000)"
fill="#000000" stroke="none">
<path d="M1032 3267 c-6 -6 -14 -26 -18 -42 -4 -17 -9 -34 -13 -40 -3 -5 -4
-20 -2 -32 2 -20 -2 -23 -36 -23 -25 0 -69 -14 -122 -40 -82 -40 -83 -40 -76
-73 4 -17 13 -50 20 -72 8 -22 16 -57 20 -77 5 -34 9 -38 35 -38 37 0 37 9 4
60 -17 25 -29 60 -32 90 -4 46 -3 50 22 60 15 5 45 13 66 16 38 6 39 6 47 -32
4 -22 8 -65 8 -96 0 -48 -4 -61 -27 -85 -32 -34 -48 -73 -48 -118 0 -24 -11
-46 -40 -81 -22 -27 -40 -52 -40 -56 0 -4 -25 -26 -55 -49 -30 -22 -80 -72
-111 -111 -54 -65 -60 -69 -89 -64 l-32 6 -6 -69 c-3 -38 -3 -78 0 -90 6 -24
23 -29 23 -6 0 8 14 30 30 48 17 19 30 42 30 50 0 23 127 135 190 168 30 15
92 63 137 106 l82 79 67 -34 c75 -38 73 -23 23 -170 -27 -79 -36 -95 -63 -109
-17 -8 -32 -17 -34 -18 -4 -4 18 -47 27 -55 3 -3 19 -24 34 -47 27 -42 68 -62
51 -25 -15 34 -11 136 6 172 25 51 99 181 111 197 20 23 1 56 -81 145 l-81 87
27 63 c14 35 29 67 34 71 4 5 28 -6 54 -24 25 -18 49 -30 53 -26 3 4 19 58 35
120 27 105 27 113 11 124 -28 21 -33 15 -33 -35 0 -27 -7 -70 -16 -96 l-16
-47 -23 21 c-12 12 -31 37 -41 55 -10 19 -33 42 -51 50 -18 9 -33 19 -33 23 1
17 19 34 29 27 7 -4 22 4 34 17 29 31 30 104 2 124 -24 17 -79 18 -93 1z"/>
<path d="M1380 2929 c0 -3 -18 -88 -40 -189 -22 -101 -40 -188 -40 -193 0 -5
57 -7 128 -5 138 4 177 16 209 65 24 36 22 89 -5 115 l-21 21 29 34 c29 33 37
64 24 98 -13 32 -66 48 -176 53 -60 3 -108 3 -108 1z m168 -91 c3 -39 -23 -78
-53 -78 -18 0 -18 4 -4 70 9 44 14 51 32 48 17 -2 23 -11 25 -40z m-28 -142
c10 -26 -1 -78 -21 -102 -6 -8 -23 -14 -36 -14 -23 0 -25 3 -19 33 4 17 9 49
13 70 5 31 10 37 30 37 16 0 26 -8 33 -24z"/>
<path d="M1825 2912 c-51 -24 -101 -80 -114 -129 -16 -55 -13 -149 4 -183 22
-43 63 -60 144 -60 106 0 152 25 192 103 48 93 44 197 -10 251 -28 28 -38 31
-103 34 -55 2 -83 -2 -113 -16z m123 -84 c6 -108 -48 -252 -92 -246 -19 3 -21
9 -20 78 1 115 50 236 93 228 12 -2 17 -17 19 -60z"/>
<path d="M2175 2919 c-3 -8 -22 -95 -43 -194 l-39 -180 104 -3 c57 -1 122 2
145 9 110 29 178 184 132 299 -23 58 -56 72 -186 78 -86 4 -109 2 -113 -9z
m182 -56 c10 -25 -14 -168 -36 -218 -19 -43 -62 -77 -78 -61 -7 6 43 270 54
289 8 14 54 7 60 -10z"/>
<path d="M2544 2913 c3 -10 16 -63 30 -118 23 -95 24 -104 11 -165 -21 -95
-23 -90 50 -90 36 0 65 2 65 4 0 3 7 36 15 74 12 57 28 91 90 185 41 64 75
119 75 122 0 3 -13 5 -29 5 -26 0 -35 -9 -67 -62 -59 -99 -56 -98 -79 -16
l-21 73 -73 3 c-66 3 -72 1 -67 -15z"/>
<path d="M2897 2923 c-4 -3 -7 -15 -7 -25 0 -15 8 -18 45 -18 25 0 45 -2 45
-4 0 -3 -16 -77 -35 -166 -19 -89 -35 -163 -35 -166 0 -2 29 -4 65 -4 59 0 65
2 70 23 10 43 65 308 65 312 0 3 22 5 49 5 47 0 61 9 61 41 0 10 -313 13 -323
2z"/>
<path d="M3330 2914 c-77 -33 -120 -103 -128 -205 -3 -50 0 -75 13 -103 24
-51 59 -66 151 -66 89 0 135 20 173 76 26 38 51 121 51 169 -1 53 -35 114 -74
130 -45 19 -141 19 -186 -1z m118 -84 c7 -108 -39 -242 -85 -248 -28 -4 -38
29 -29 101 14 109 61 211 95 205 12 -2 17 -17 19 -58z"/>
<path d="M3675 2918 c-3 -7 -20 -87 -40 -178 -19 -91 -37 -173 -39 -182 -3
-14 2 -18 24 -18 27 0 27 1 57 138 l29 137 34 -137 34 -138 71 0 72 0 37 178
c47 221 45 206 18 210 -27 4 -28 2 -62 -156 l-27 -127 -16 73 c-10 39 -24 104
-33 142 l-16 70 -69 0 c-47 0 -71 -4 -74 -12z"/>
<path d="M4065 2918 c-7 -22 -75 -353 -75 -366 0 -8 20 -12 63 -12 l64 0 40
188 c22 103 38 190 36 195 -7 13 -123 8 -128 -5z"/>
<path d="M4345 2916 c-147 -55 -195 -301 -69 -361 44 -21 172 -18 218 5 29 14
35 28 49 98 l7 32 -56 0 c-43 0 -56 -4 -60 -17 -26 -80 -52 -106 -81 -81 -13
10 -15 27 -10 89 8 97 40 186 74 202 33 15 46 -5 39 -60 l-6 -43 54 0 c59 0
60 1 71 72 6 41 5 45 -22 57 -43 21 -161 24 -208 7z"/>
<path d="M1567 2363 c-4 -3 -7 -15 -7 -25 0 -17 45 -18 1250 -18 l1250 0 0 25
0 25 -1243 0 c-684 0 -1247 -3 -1250 -7z"/>
</g>
</svg>
